<svg width="194" height="130" viewBox="0 0 194 130" fill="none" xmlns="http://www.w3.org/2000/svg">
<path opacity="0.6" d="M121.2 129.7C161.406 129.7 194 116.895 194 101.1C194 85.3047 161.406 72.5 121.2 72.5C80.9936 72.5 48.3999 85.3047 48.3999 101.1C48.3999 116.895 80.9936 129.7 121.2 129.7Z" fill="url(#paint0_linear)"/>
<path d="M158.7 83.5C158.7 85 158.4 86.5 157.9 87.9C157.3 89.4 156.5 90.8 155.4 92.2C155 92.7 154.6 93.2 154.1 93.7C145.8 102.4 127.2 108.9 104.7 110.4C101.6 110.6 98.4999 110.7 95.2999 110.7C67.3999 110.7 43.7999 103 35.1999 92.3C33.1999 89.8 32.0999 87.2 31.8999 84.4C31.8999 84.1 31.8999 83.8 31.8999 83.5C31.8999 81.7 32.2999 80 33.0999 78.3C33.5999 77.2 34.1999 76.2 34.8999 75.2C35.1999 74.8 35.5999 74.3 35.9999 73.9C36.9999 72.8 38.1999 71.7 39.4999 70.6C39.9999 70.2 40.4999 69.9 40.9999 69.5C41.0999 69.4 41.2999 69.3 41.3999 69.2C42.3999 68.5 43.3999 67.9 44.4999 67.2C46.2999 66.2 48.2999 65.2 50.3999 64.3C53.9999 62.7 57.9999 61.4 62.3999 60.2C63.1999 60 63.9999 59.8 64.7999 59.6C70.8999 58.2 77.6999 57.1 84.7999 56.6C88.1999 56.4 91.7999 56.2 95.3999 56.2C99.0999 56.2 102.7 56.3 106.1 56.6C112.8 57.1 119.2 58 125.1 59.4C125.8 59.6 126.5 59.7 127.2 59.9C128 60.1 128.8 60.3 129.6 60.5C129.9 60.6 130.3 60.7 130.6 60.8C130.7 60.8 130.8 60.8 130.8 60.9C134.2 61.9 137.4 63 140.3 64.3C141.9 65 143.4 65.7 144.9 66.5C145.2 66.7 145.5 66.8 145.8 67C147.1 67.7 148.3 68.5 149.4 69.3C149.5 69.4 149.6 69.4 149.7 69.5C150.3 69.9 150.8 70.3 151.3 70.7C152.6 71.7 153.7 72.8 154.7 73.9C155.1 74.4 155.5 74.9 155.9 75.4C156.6 76.3 157.1 77.3 157.6 78.3C158.3 80 158.7 81.7 158.7 83.5Z" fill="url(#paint1_linear)"/>
<path d="M156.2 93.6C155.6 94.4 155 95.2 154.2 96C144.7 106 121.9 113 95.2998 113C66.3998 113 41.9998 104.7 34.2998 93.4C34.5998 93 34.7998 92.7 35.0998 92.3C35.1998 92.2 35.2998 92.1 35.3998 92C36.1998 91.1 37.0998 90.1 38.0998 89.2C39.3998 88 40.8998 86.9 42.5998 85.8C53.9998 78.6 73.2998 73.9 95.0998 73.9C115.2 73.9 133 77.9 144.7 84.1C146.2 84.9 147.6 85.7 148.8 86.6C149.8 87.3 150.8 88 151.7 88.8C153 89.9 154.1 91 155 92.1C155 92.2 155.1 92.2 155.1 92.2C155.6 92.7 155.9 93.2 156.2 93.6Z" fill="url(#paint2_linear)"/>
<path d="M158.9 82.9V85.7V86.6C158.7 89 157.8 91.3 156.3 93.5C155.7 94.3 155.1 95.1 154.3 95.9C145.8 104.8 126.6 111.4 103.5 112.7C100.9 112.8 98.1998 112.9 95.4998 112.9C66.5998 112.9 42.1998 104.6 34.4998 93.3C32.8998 90.9 31.9998 88.3 31.9998 85.7V82.9C31.9998 83.9 32.0998 84.8 32.2998 85.7C32.7998 87.9 33.8998 89.9 35.5998 91.9C44.2998 102.5 67.8998 110.1 95.4998 110.1C98.7998 110.1 102 110 105.1 109.8C127.5 108.3 146.1 101.9 154.4 93.1C154.7 92.8 155 92.4 155.3 92.1C156.4 90.8 157.3 89.4 157.9 88C158.1 87.6 158.3 87.1 158.4 86.7C158.7 85.4 158.9 84.2 158.9 82.9Z" fill="url(#paint3_linear)"/>
<path d="M94.8998 106.9C127.264 106.9 153.5 96.3339 153.5 83.3C153.5 70.2661 127.264 59.7 94.8998 59.7C62.5359 59.7 36.2998 70.2661 36.2998 83.3C36.2998 96.3339 62.5359 106.9 94.8998 106.9Z" fill="url(#paint4_linear)"/>
<path d="M158.9 86.7L158.7 101.1C158.7 103.8 157.8 106.3 156.1 108.8C155.5 109.7 154.8 110.5 154 111.4C144.6 121.3 121.8 128.3 95.1998 128.3C60.7998 128.3 32.6998 116.5 31.7998 101.9V101.1V85.8C31.7998 88.4 32.6998 91 34.2998 93.4C41.9998 104.7 66.3998 113 95.2998 113C97.9998 113 100.7 112.9 103.3 112.8C126.4 111.6 145.7 105 154.1 96C154.9 95.2 155.5 94.4 156.1 93.6C157.8 91.4 158.7 89.1 158.9 86.7Z" fill="url(#paint5_linear)"/>
<path d="M158.9 58.7L158.8 66V69L158.7 73C158.7 74.8 158.3 76.5 157.5 78.2C157.1 79 156.7 79.9 156.1 80.7C155.5 81.6 154.8 82.4 154 83.3C153.8 83.5 153.6 83.7 153.4 83.9C152.3 85 151 86 149.6 87.1C141 93.2 127 97.8 110.3 99.5C105.4 100 100.4 100.3 95.0998 100.3C71.9998 100.3 51.7998 95 40.6998 87.1C38.9998 85.9 37.4998 84.6 36.1998 83.2C34.6998 81.6 33.5998 80 32.8998 78.3C32.1998 76.9 31.8998 75.4 31.7998 73.9V73.1V57.8C31.7998 60.4 32.6998 63 34.2998 65.4C35.4998 67.2 37.1998 69 39.2998 70.6C40.1998 71.3 41.1998 72.1 42.2998 72.8C46.1998 75.3 51.0998 77.6 56.7998 79.4C67.4998 82.9 80.8998 85 95.3998 85C103.8 85 111.8 84.3 119.1 83C124.4 82.1 129.4 80.9 133.9 79.4C139.3 77.6 144.1 75.5 147.9 73.1C149.1 72.3 150.3 71.5 151.3 70.7C152.4 69.8 153.4 68.9 154.3 68C155.1 67.2 155.7 66.4 156.3 65.6C157.8 63.4 158.7 61.1 158.9 58.7Z" fill="url(#paint6_linear)"/>
<path d="M158.7 55.6C158.7 57.1 158.4 58.6 157.9 60C157.3 61.5 156.5 62.9 155.4 64.3C155 64.8 154.6 65.3 154.1 65.8C152.9 67.1 151.4 68.3 149.7 69.5C148.6 70.3 147.4 71 146.2 71.8C141.8 74.4 136.3 76.6 130 78.3C127 79.2 123.8 79.9 120.5 80.5C112.8 81.9 104.3 82.7 95.2999 82.7C82.4999 82.7 70.4999 81.1 60.5999 78.3C54.1999 76.5 48.5999 74.2 43.9999 71.6C42.8999 70.9 41.7999 70.3 40.7999 69.6C38.4999 68 36.5999 66.2 35.1999 64.4C33.1999 61.9 32.0999 59.3 31.8999 56.5C31.8999 56.2 31.8999 55.9 31.8999 55.6C31.8999 53.8 32.2999 52.1 33.0999 50.4C33.5999 49.2 34.3999 48 35.2999 46.9C35.4999 46.6 35.7999 46.3 35.9999 46C36.9999 44.9 38.1999 43.8 39.4999 42.7C39.9999 42.3 40.4999 42 40.9999 41.6C41.0999 41.5 41.2999 41.4 41.3999 41.3C42.3999 40.6 43.3999 40 44.4999 39.3C56.0999 32.7 74.5999 28.3 95.3999 28.3C114.5 28.3 131.5 31.9 143.2 37.6C143.8 37.9 144.4 38.2 145 38.5C145.3 38.7 145.6 38.8 145.9 39C147.2 39.7 148.4 40.5 149.5 41.3C149.6 41.4 149.7 41.4 149.8 41.5C150.4 41.9 150.9 42.3 151.4 42.7C152.5 43.6 153.5 44.5 154.4 45.5C154.8 46 155.2 46.5 155.6 46.9C156.4 48 157.1 49.1 157.6 50.2C158.3 52.1 158.7 53.8 158.7 55.6Z" fill="url(#paint7_linear)"/>
<path d="M156.2 65.7C155.6 66.5 155 67.3 154.2 68.1C144.7 78.1 121.9 85.1 95.2998 85.1C66.3998 85.1 41.9998 76.8 34.2998 65.5C34.5998 65.1 34.7998 64.8 35.0998 64.4C35.1998 64.3 35.2998 64.2 35.3998 64.1C36.1998 63.2 37.0998 62.2 38.0998 61.3C39.3998 60.1 40.8998 59 42.5998 57.9C53.9998 50.7 73.2998 46 95.0998 46C115.2 46 133 50 144.7 56.2C146.2 57 147.6 57.8 148.8 58.7C149.8 59.4 150.8 60.1 151.7 60.9C153 62 154.1 63.1 155 64.2C155 64.3 155.1 64.3 155.1 64.3C155.6 64.8 155.9 65.2 156.2 65.7Z" fill="url(#paint8_linear)"/>
<path d="M158.9 55V57.8V58.7C158.7 61.1 157.8 63.4 156.3 65.6C155.7 66.4 155.1 67.2 154.3 68C153.4 68.9 152.4 69.8 151.3 70.7C150.2 71.5 149.1 72.3 147.9 73.1C144 75.5 139.3 77.7 133.9 79.4C129.4 80.9 124.4 82.1 119.1 83C111.8 84.3 103.8 85 95.3998 85C80.8998 85 67.4998 82.9 56.7998 79.4C51.1998 77.5 46.2998 75.3 42.2998 72.8C41.1998 72.1 40.1998 71.4 39.2998 70.6C37.1998 69 35.5998 67.2 34.2998 65.4C32.6998 63 31.7998 60.4 31.7998 57.8V55C31.7998 56 31.8998 56.9 32.0998 57.8C32.5998 60 33.6998 62 35.3998 64C36.8998 65.8 38.8998 67.6 41.1998 69.2C42.1998 69.9 43.2998 70.6 44.3998 71.2C49.0998 73.9 54.8998 76.2 61.4998 78C71.2998 80.6 82.8998 82.2 95.2998 82.2C104.3 82.2 112.9 81.4 120.6 79.9C123.5 79.4 126.3 78.7 128.9 78C135.3 76.3 141 74.1 145.6 71.5C146.9 70.8 148.1 70 149.2 69.3C151.1 68 152.7 66.6 154.1 65.2C154.4 64.9 154.7 64.5 155 64.2C156.1 62.9 157 61.5 157.6 60.1C157.8 59.7 158 59.2 158.1 58.8C158.7 57.5 158.9 56.2 158.9 55Z" fill="url(#paint9_linear)"/>
<path d="M35.7999 73.7V76.5C35.2999 75.9 34.7999 75.2 34.2999 74.6C33.9999 74.1 33.6999 73.6 33.3999 73.1V70.3C33.8999 71.3 34.5999 72.3 35.3999 73.2C35.4999 73.4 35.6999 73.6 35.7999 73.7Z" fill="url(#paint10_linear)"/>
<path d="M40.5997 78V80.8C39.7997 80.2 38.9997 79.6 38.1997 78.9V76.1C38.9997 76.8 39.7997 77.4 40.5997 78Z" fill="url(#paint11_linear)"/>
<path d="M45.3997 81V83.8C44.5997 83.4 43.7998 82.9 42.9998 82.4V79.6C43.7998 80.1 44.5997 80.6 45.3997 81Z" fill="url(#paint12_linear)"/>
<path d="M50.1998 83.4V86.2C49.3998 85.9 48.5998 85.5 47.7998 85.1V82.3C48.5998 82.6 49.3998 83 50.1998 83.4Z" fill="url(#paint13_linear)"/>
<path d="M54.9998 85.2V88C54.1998 87.7 53.3999 87.4 52.5999 87.1V84.3C53.3999 84.7 54.1998 84.9 54.9998 85.2Z" fill="url(#paint14_linear)"/>
<path d="M59.7999 86.8V89.6C58.9999 89.4 58.1999 89.1 57.3999 88.9V86C58.1999 86.3 58.9999 86.5 59.7999 86.8Z" fill="url(#paint15_linear)"/>
<path d="M64.5997 88V90.8C63.7997 90.6 62.9997 90.4 62.1997 90.2V87.4C62.9997 87.6 63.7997 87.8 64.5997 88Z" fill="url(#paint16_linear)"/>
<path d="M69.3997 89.1V91.9C68.5997 91.7 67.7998 91.6 66.9998 91.4V88.6C67.7998 88.7 68.5997 88.9 69.3997 89.1Z" fill="url(#paint17_linear)"/>
<path d="M74.1998 89.9V92.7C73.3998 92.6 72.5998 92.5 71.7998 92.3V89.5C72.6998 89.6 73.3998 89.8 74.1998 89.9Z" fill="url(#paint18_linear)"/>
<path d="M78.9998 90.5V93.3C78.1998 93.2 77.3999 93.1 76.5999 93V90.2C77.4999 90.3 78.1998 90.4 78.9998 90.5Z" fill="url(#paint19_linear)"/>
<path d="M83.7999 91V93.8C82.9999 93.7 82.1999 93.7 81.3999 93.6V90.8C82.2999 90.8 83.0999 90.9 83.7999 91Z" fill="url(#paint20_linear)"/>
<path d="M88.6998 91.3V94.1C87.8998 94.1 87.0998 94 86.2998 94V91.2C87.0998 91.2 87.8998 91.2 88.6998 91.3Z" fill="url(#paint21_linear)"/>
<path d="M93.4998 91.4V94.2C92.6998 94.2 91.8999 94.2 91.0999 94.2V91.4C91.8999 91.4 92.6998 91.4 93.4998 91.4Z" fill="url(#paint22_linear)"/>
<path d="M98.2999 91.4V94.2C97.4999 94.2 96.6999 94.2 95.8999 94.2V91.4C96.6999 91.4 97.4999 91.4 98.2999 91.4Z" fill="url(#paint23_linear)"/>
<path d="M103.1 91.2V94C102.3 94 101.5 94.1 100.7 94.1V91.3C101.5 91.3 102.3 91.3 103.1 91.2Z" fill="url(#paint24_linear)"/>
<path d="M107.9 90.9V93.7C107.1 93.8 106.3 93.8 105.5 93.9V91.1C106.3 91 107.1 91 107.9 90.9Z" fill="url(#paint25_linear)"/>
<path d="M112.7 90.4V93.2C111.9 93.3 111.1 93.4 110.3 93.5V90.7C111.1 90.6 111.9 90.5 112.7 90.4Z" fill="url(#paint26_linear)"/>
<path d="M117.5 89.7V92.5C116.7 92.6 115.9 92.7 115.1 92.9V90.1C115.9 90 116.7 89.9 117.5 89.7Z" fill="url(#paint27_linear)"/>
<path d="M122.3 88.9V91.7C121.5 91.9 120.7 92 119.9 92.1V89.3C120.7 89.2 121.5 89 122.3 88.9Z" fill="url(#paint28_linear)"/>
<path d="M127.1 87.8V90.6C126.3 90.8 125.5 91 124.7 91.2V88.4C125.5 88.2 126.3 88 127.1 87.8Z" fill="url(#paint29_linear)"/>
<path d="M131.9 86.5V89.3C131.1 89.5 130.3 89.8 129.5 90V87.2C130.3 86.9 131.1 86.7 131.9 86.5Z" fill="url(#paint30_linear)"/>
<path d="M136.7 84.9V87.7C135.9 88 135.1 88.3 134.3 88.5V85.7C135.1 85.4 135.9 85.2 136.7 84.9Z" fill="url(#paint31_linear)"/>
<path d="M141.5 82.9V85.7C140.7 86 139.9 86.4 139.1 86.7V83.9C139.9 83.6 140.7 83.3 141.5 82.9Z" fill="url(#paint32_linear)"/>
<path d="M146.3 80.5V83.3C145.5 83.7 144.7 84.2 143.9 84.6V81.8C144.7 81.3 145.5 80.9 146.3 80.5Z" fill="url(#paint33_linear)"/>
<path d="M151.1 77.3V80.1C150.4 80.7 149.6 81.3 148.7 81.8V79C149.6 78.4 150.3 77.9 151.1 77.3Z" fill="url(#paint34_linear)"/>
<path d="M155.9 72.5V75.3C155.4 76 154.9 76.6 154.2 77.3C154 77.5 153.7 77.8 153.5 78V75.2C153.7 75 154 74.7 154.2 74.5C154.5 74.2 154.8 73.8 155.1 73.5C155.4 73.1 155.7 72.8 155.9 72.5Z" fill="url(#paint35_linear)"/>
<path d="M158.9 64.2V67V67.9C158.9 68.3 158.8 68.7 158.8 69.1C158.7 69.6 158.6 70.2 158.4 70.7V67.9C158.6 67.3 158.7 66.7 158.8 66.1C158.9 65.4 158.9 64.8 158.9 64.2Z" fill="url(#paint36_linear)"/>
<path d="M94.8998 78.9C127.264 78.9 153.5 68.3339 153.5 55.3C153.5 42.2661 127.264 31.7 94.8998 31.7C62.5359 31.7 36.2998 42.2661 36.2998 55.3C36.2998 68.3339 62.5359 78.9 94.8998 78.9Z" fill="url(#paint37_linear)"/>
<path d="M158.7 27.6C158.7 29.1 158.4 30.6 157.9 32C157.3 33.5 156.5 34.9 155.4 36.3C155 36.8 154.6 37.3 154.1 37.8C152.9 39.1 151.4 40.4 149.7 41.5C148.6 42.3 147.4 43 146.2 43.8C143.7 45.2 140.9 46.6 137.7 47.8C135.3 48.7 132.7 49.6 130 50.3C120 53.1 108.1 54.7 95.2998 54.7C82.4998 54.7 70.4998 53.1 60.5998 50.3C54.1998 48.5 48.5998 46.2 44.0998 43.6C42.9998 42.9 41.8997 42.3 40.8997 41.6C38.5997 40 36.6998 38.2 35.2998 36.4C33.2998 33.9 32.1998 31.3 31.9998 28.5C31.9998 28.2 31.9998 27.9 31.9998 27.6C31.9998 27.4 31.9998 27.2 31.9998 27C32.6998 12.3 60.7998 0.400024 95.3997 0.400024C115.5 0.400024 133.3 4.40002 145 10.6C148.7 12.6 151.7 14.8 154 17.1C156.9 20.4 158.7 23.9 158.7 27.6Z" fill="url(#paint38_linear)"/>
<path d="M156.2 37.7C155.6 38.5 155 39.3 154.2 40.1C144.7 50.1 121.9 57.1 95.2998 57.1C66.3998 57.1 41.9998 48.8 34.2998 37.5C34.5998 37.1 34.7998 36.8 35.0998 36.4C35.1998 36.3 35.2998 36.2 35.3998 36.1C36.1998 35.2 37.0998 34.2 38.0998 33.3C39.3998 32.1 40.8998 31 42.5998 29.9C53.9998 22.7 73.2998 18 95.0998 18C115.2 18 133 22 144.7 28.2C146.2 29 147.6 29.8 148.8 30.7C149.8 31.4 150.8 32.1 151.7 32.9C153 34 154.1 35.1 155 36.2C155 36.3 155.1 36.3 155.1 36.3C155.6 36.8 155.9 37.3 156.2 37.7Z" fill="url(#paint39_linear)"/>
<path d="M158.9 27V29.8V30.7C158.7 33.1 157.8 35.4 156.3 37.6C155.7 38.4 155.1 39.2 154.3 40C153.4 40.9 152.4 41.8 151.3 42.7C150.2 43.5 149.1 44.3 147.9 45.1C144.6 47.2 140.6 49 136.2 50.6C135.4 50.9 134.7 51.1 133.9 51.4C125.9 54 116.4 55.8 106.1 56.6C102.6 56.8 99.0998 57 95.4998 57C91.7998 57 88.2998 56.9 84.7998 56.6C74.3998 55.8 64.8997 54 56.8997 51.4C51.2997 49.5 46.3998 47.3 42.4998 44.8C41.3998 44.1 40.3998 43.4 39.4998 42.6C37.3998 41 35.7998 39.2 34.4998 37.4C32.8998 35 31.9998 32.4 31.9998 29.8V27C31.9998 28 32.0998 28.9 32.2998 29.8C32.7998 32 33.8998 34 35.5998 36C37.0998 37.8 39.0997 39.6 41.3997 41.2C42.3997 41.9 43.4998 42.6 44.5998 43.2C49.2998 45.9 55.0998 48.2 61.6998 50C71.4998 52.6 83.0998 54.2 95.4998 54.2C107.9 54.2 119.4 52.7 129.2 50.1C132.4 49.3 135.4 48.3 138.1 47.2C140.9 46.1 143.6 44.9 145.9 43.6C147.2 42.9 148.4 42.1 149.5 41.4C151.4 40.1 153 38.7 154.4 37.3C154.7 37 155 36.6 155.3 36.3C156.4 35 157.3 33.6 157.9 32.2C158.1 31.8 158.3 31.3 158.4 30.9C158.7 29.6 158.9 28.3 158.9 27Z" fill="url(#paint40_linear)"/>
<path d="M94.6 51.2C126.964 51.2 153.2 40.6339 153.2 27.6C153.2 14.5661 126.964 4 94.6 4C62.2361 4 36 14.5661 36 27.6C36 40.6339 62.2361 51.2 94.6 51.2Z" fill="url(#paint41_linear)"/>
<path d="M158.9 30.8L158.7 45.2C158.7 47 158.3 48.7 157.5 50.4C157.1 51.2 156.6 52.1 156.1 52.9C155.5 53.8 154.8 54.6 154 55.5C153.8 55.7 153.6 55.9 153.4 56.1C152.3 57.2 151 58.2 149.6 59.3C147 61.2 143.8 62.9 140.2 64.5C138.7 65.2 137.1 65.8 135.4 66.4C132.6 67.4 129.7 68.2 126.6 69C117.4 71.3 106.6 72.5 95.1999 72.5C79.7999 72.5 65.5999 70.1 54.5999 66.2C53.0999 65.7 51.5999 65.1 50.1999 64.5C46.5999 62.9 43.3999 61.2 40.7999 59.3C39.0999 58.1 37.5999 56.8 36.2999 55.4C34.7999 53.8 33.6999 52.2 32.9999 50.5C32.2999 49.1 31.9999 47.6 31.8999 46.1V45.3V30C31.8999 32.6 32.7999 35.2 34.3999 37.6C35.5999 39.4 37.2999 41.2 39.3999 42.8C40.2999 43.5 41.2999 44.3 42.3999 45C46.2999 47.5 51.1999 49.8 56.7999 51.6C64.7999 54.2 74.2999 56.1 84.6999 56.8C88.1999 57.1 91.7999 57.2 95.3999 57.2C98.9999 57.2 102.6 57.1 106 56.8C116.3 56.1 125.8 54.2 133.8 51.6C134.6 51.3 135.3 51.1 136.1 50.8C140.6 49.2 144.5 47.3 147.8 45.3C149 44.5 150.2 43.7 151.2 42.9C152.3 42 153.3 41.1 154.2 40.2C155 39.4 155.6 38.6 156.2 37.8C157.8 35.5 158.7 33.2 158.9 30.8Z" fill="url(#paint42_linear)"/>
<path d="M35.7999 73.7V76.5C35.2999 75.9 34.7999 75.2 34.2999 74.6C33.9999 74.1 33.6999 73.6 33.3999 73.1V70.3C33.8999 71.3 34.5999 72.3 35.3999 73.2C35.4999 73.4 35.6999 73.6 35.7999 73.7Z" fill="url(#paint43_linear)"/>
<path d="M40.6 78V80.8C39.8 80.2 39 79.6 38.2 78.9V76.1C39 76.8 39.8 77.4 40.6 78Z" fill="url(#paint44_linear)"/>
<path d="M45.4 81V83.8C44.6 83.4 43.8 82.9 43 82.4V79.6C43.8 80.1 44.6 80.6 45.4 81Z" fill="url(#paint45_linear)"/>
<path d="M50.1998 83.4V86.2C49.3998 85.9 48.5998 85.5 47.7998 85.1V82.3C48.5998 82.6 49.3998 83 50.1998 83.4Z" fill="url(#paint46_linear)"/>
<path d="M54.9998 85.2V88C54.1998 87.7 53.3999 87.4 52.5999 87.1V84.3C53.3999 84.7 54.1998 84.9 54.9998 85.2Z" fill="url(#paint47_linear)"/>
<path d="M59.7999 86.8V89.6C58.9999 89.4 58.1999 89.1 57.3999 88.9V86C58.1999 86.3 58.9999 86.5 59.7999 86.8Z" fill="url(#paint48_linear)"/>
<path d="M64.6 88V90.8C63.8 90.6 63 90.4 62.2 90.2V87.4C63 87.6 63.8 87.8 64.6 88Z" fill="url(#paint49_linear)"/>
<path d="M69.4 89.1V91.9C68.6 91.7 67.8 91.6 67 91.4V88.6C67.8 88.7 68.6 88.9 69.4 89.1Z" fill="url(#paint50_linear)"/>
<path d="M74.1998 89.9V92.7C73.3998 92.6 72.5998 92.5 71.7998 92.3V89.5C72.6998 89.6 73.3998 89.8 74.1998 89.9Z" fill="url(#paint51_linear)"/>
<path d="M78.9998 90.5V93.3C78.1998 93.2 77.3999 93.1 76.5999 93V90.2C77.4999 90.3 78.1998 90.4 78.9998 90.5Z" fill="url(#paint52_linear)"/>
<path d="M83.7999 91V93.8C82.9999 93.7 82.1999 93.7 81.3999 93.6V90.8C82.2999 90.8 83.0999 90.9 83.7999 91Z" fill="url(#paint53_linear)"/>
<path d="M88.6998 91.3V94.1C87.8998 94.1 87.0998 94 86.2998 94V91.2C87.0998 91.2 87.8998 91.2 88.6998 91.3Z" fill="url(#paint54_linear)"/>
<path d="M93.4998 91.4V94.2C92.6998 94.2 91.8999 94.2 91.0999 94.2V91.4C91.8999 91.4 92.6998 91.4 93.4998 91.4Z" fill="url(#paint55_linear)"/>
<path d="M98.2999 91.4V94.2C97.4999 94.2 96.6999 94.2 95.8999 94.2V91.4C96.6999 91.4 97.4999 91.4 98.2999 91.4Z" fill="url(#paint56_linear)"/>
<path d="M103.1 91.2V94C102.3 94 101.5 94.1 100.7 94.1V91.3C101.5 91.3 102.3 91.3 103.1 91.2Z" fill="url(#paint57_linear)"/>
<path d="M107.9 90.9V93.7C107.1 93.8 106.3 93.8 105.5 93.9V91.1C106.3 91 107.1 91 107.9 90.9Z" fill="url(#paint58_linear)"/>
<path d="M112.7 90.4V93.2C111.9 93.3 111.1 93.4 110.3 93.5V90.7C111.1 90.6 111.9 90.5 112.7 90.4Z" fill="url(#paint59_linear)"/>
<path d="M117.5 89.7V92.5C116.7 92.6 115.9 92.7 115.1 92.9V90.1C115.9 90 116.7 89.9 117.5 89.7Z" fill="url(#paint60_linear)"/>
<path d="M122.3 88.9V91.7C121.5 91.9 120.7 92 119.9 92.1V89.3C120.7 89.2 121.5 89 122.3 88.9Z" fill="url(#paint61_linear)"/>
<path d="M127.1 87.8V90.6C126.3 90.8 125.5 91 124.7 91.2V88.4C125.5 88.2 126.3 88 127.1 87.8Z" fill="url(#paint62_linear)"/>
<path d="M131.9 86.5V89.3C131.1 89.5 130.3 89.8 129.5 90V87.2C130.3 86.9 131.1 86.7 131.9 86.5Z" fill="url(#paint63_linear)"/>
<path d="M136.7 84.9V87.7C135.9 88 135.1 88.3 134.3 88.5V85.7C135.1 85.4 135.9 85.2 136.7 84.9Z" fill="url(#paint64_linear)"/>
<path d="M141.5 82.9V85.7C140.7 86 139.9 86.4 139.1 86.7V83.9C139.9 83.6 140.7 83.3 141.5 82.9Z" fill="url(#paint65_linear)"/>
<path d="M146.3 80.5V83.3C145.5 83.7 144.7 84.2 143.9 84.6V81.8C144.7 81.3 145.5 80.9 146.3 80.5Z" fill="url(#paint66_linear)"/>
<path d="M151.1 77.3V80.1C150.4 80.7 149.6 81.3 148.7 81.8V79C149.6 78.4 150.3 77.9 151.1 77.3Z" fill="url(#paint67_linear)"/>
<path d="M155.9 72.5V75.3C155.4 76 154.9 76.6 154.2 77.3C154 77.5 153.7 77.8 153.5 78V75.2C153.7 75 154 74.7 154.2 74.5C154.5 74.2 154.8 73.8 155.1 73.5C155.4 73.1 155.7 72.8 155.9 72.5Z" fill="url(#paint68_linear)"/>
<path d="M35.7999 100.7V103.5C35.2999 102.9 34.7999 102.2 34.2999 101.6C33.9999 101.1 33.6999 100.6 33.3999 100.1V97.3C33.8999 98.3 34.5999 99.3 35.3999 100.2C35.4999 100.4 35.6999 100.6 35.7999 100.7Z" fill="url(#paint69_linear)"/>
<path d="M40.6 105V107.8C39.8 107.2 39 106.6 38.2 105.9V103.1C39 103.8 39.8 104.4 40.6 105Z" fill="url(#paint70_linear)"/>
<path d="M45.4 108V110.8C44.6 110.4 43.8 109.9 43 109.4V106.6C43.8 107.1 44.6 107.6 45.4 108Z" fill="url(#paint71_linear)"/>
<path d="M50.1998 110.4V113.2C49.3998 112.9 48.5998 112.5 47.7998 112.1V109.3C48.5998 109.7 49.3998 110 50.1998 110.4Z" fill="url(#paint72_linear)"/>
<path d="M54.9998 112.2V115C54.1998 114.7 53.3999 114.4 52.5999 114.1V111.3C53.3999 111.7 54.1998 112 54.9998 112.2Z" fill="url(#paint73_linear)"/>
<path d="M59.7999 113.8V116.6C58.9999 116.4 58.1999 116.1 57.3999 115.9V113.1C58.1999 113.3 58.9999 113.6 59.7999 113.8Z" fill="url(#paint74_linear)"/>
<path d="M64.6 115V117.8C63.8 117.6 63 117.4 62.2 117.2V114.4C63 114.7 63.8 114.9 64.6 115Z" fill="url(#paint75_linear)"/>
<path d="M69.4 116.1V118.9C68.6 118.7 67.8 118.6 67 118.4V115.6C67.8 115.8 68.6 115.9 69.4 116.1Z" fill="url(#paint76_linear)"/>
<path d="M74.1998 116.9V119.7C73.3998 119.6 72.5998 119.5 71.7998 119.3V116.5C72.6998 116.7 73.3998 116.8 74.1998 116.9Z" fill="url(#paint77_linear)"/>
<path d="M78.9998 117.5V120.3C78.1998 120.2 77.3999 120.1 76.5999 120V117.2C77.4999 117.3 78.1998 117.4 78.9998 117.5Z" fill="url(#paint78_linear)"/>
<path d="M83.7999 118V120.8C82.9999 120.7 82.1999 120.7 81.3999 120.6V117.8C82.2999 117.9 83.0999 117.9 83.7999 118Z" fill="url(#paint79_linear)"/>
<path d="M88.6998 118.3V121.1C87.8998 121.1 87.0998 121 86.2998 121V118.2C87.0998 118.2 87.8998 118.3 88.6998 118.3Z" fill="url(#paint80_linear)"/>
<path d="M93.4998 118.4V121.2C92.6998 121.2 91.8999 121.2 91.0999 121.2V118.4C91.8999 118.4 92.6998 118.4 93.4998 118.4Z" fill="url(#paint81_linear)"/>
<path d="M98.2999 118.4V121.2C97.4999 121.2 96.6999 121.2 95.8999 121.2V118.4C96.6999 118.4 97.4999 118.4 98.2999 118.4Z" fill="url(#paint82_linear)"/>
<path d="M103.1 118.2V121C102.3 121 101.5 121.1 100.7 121.1V118.3C101.5 118.3 102.3 118.3 103.1 118.2Z" fill="url(#paint83_linear)"/>
<path d="M107.9 117.9V120.7C107.1 120.8 106.3 120.8 105.5 120.9V118.1C106.3 118 107.1 118 107.9 117.9Z" fill="url(#paint84_linear)"/>
<path d="M112.7 117.4V120.2C111.9 120.3 111.1 120.4 110.3 120.5V117.7C111.1 117.6 111.9 117.5 112.7 117.4Z" fill="url(#paint85_linear)"/>
<path d="M117.5 116.7V119.5C116.7 119.6 115.9 119.7 115.1 119.9V117.1C115.9 117 116.7 116.9 117.5 116.7Z" fill="url(#paint86_linear)"/>
<path d="M122.3 115.9V118.7C121.5 118.9 120.7 119 119.9 119.1V116.3C120.7 116.2 121.5 116 122.3 115.9Z" fill="url(#paint87_linear)"/>
<path d="M127.1 114.8V117.6C126.3 117.8 125.5 118 124.7 118.2V115.4C125.5 115.2 126.3 115 127.1 114.8Z" fill="url(#paint88_linear)"/>
<path d="M131.9 113.5V116.3C131.1 116.5 130.3 116.8 129.5 117V114.2C130.3 114 131.1 113.7 131.9 113.5Z" fill="url(#paint89_linear)"/>
<path d="M136.7 111.9V114.7C135.9 115 135.1 115.3 134.3 115.5V112.7C135.1 112.5 135.9 112.2 136.7 111.9Z" fill="url(#paint90_linear)"/>
<path d="M141.5 109.9V112.7C140.7 113 139.9 113.4 139.1 113.7V111C139.9 110.6 140.7 110.3 141.5 109.9Z" fill="url(#paint91_linear)"/>
<path d="M146.3 107.5V110.3C145.5 110.7 144.7 111.2 143.9 111.6V108.8C144.7 108.4 145.5 107.9 146.3 107.5Z" fill="url(#paint92_linear)"/>
<path d="M151.1 104.3V107.1C150.4 107.7 149.6 108.3 148.7 108.8V106C149.6 105.4 150.3 104.9 151.1 104.3Z" fill="url(#paint93_linear)"/>
<path d="M155.9 99.5V102.3C155.4 103 154.9 103.6 154.2 104.3C154 104.5 153.7 104.8 153.5 105V102.2C153.7 102 154 101.7 154.2 101.5C154.5 101.2 154.8 100.8 155.1 100.5C155.4 100.1 155.7 99.8 155.9 99.5Z" fill="url(#paint94_linear)"/>
<path d="M35.7999 44.9V47.7C35.2999 47.1 34.7999 46.4 34.2999 45.8C33.9999 45.3 33.6999 44.8 33.3999 44.3V41.5C33.8999 42.5 34.5999 43.5 35.3999 44.4C35.4999 44.6 35.6999 44.8 35.7999 44.9Z" fill="url(#paint95_linear)"/>
<path d="M40.6 49.2V52C39.8 51.4 39 50.8 38.2 50.1V47.3C39 48 39.8 48.6 40.6 49.2Z" fill="url(#paint96_linear)"/>
<path d="M45.4 52.2V55C44.6 54.6 43.8 54.1 43 53.6V50.8C43.8 51.3 44.6 51.8 45.4 52.2Z" fill="url(#paint97_linear)"/>
<path d="M50.1998 54.6V57.4C49.3998 57.1 48.5998 56.7 47.7998 56.3V53.5C48.5998 53.8 49.3998 54.2 50.1998 54.6Z" fill="url(#paint98_linear)"/>
<path d="M54.9998 56.4V59.2C54.1998 58.9 53.3999 58.6 52.5999 58.3V55.5C53.3999 55.9 54.1998 56.1 54.9998 56.4Z" fill="url(#paint99_linear)"/>
<path d="M59.7999 58V60.8C58.9999 60.6 58.1999 60.3001 57.3999 60.1001V57.3C58.1999 57.5 58.9999 57.7 59.7999 58Z" fill="url(#paint100_linear)"/>
<path d="M64.6 59.2V62C63.8 61.8 63 61.6 62.2 61.4V58.6C63 58.8 63.8 59 64.6 59.2Z" fill="url(#paint101_linear)"/>
<path d="M69.4 60.3V63.1001C68.6 62.9001 67.8 62.8001 67 62.6001V59.8C67.8 59.9 68.6 60.1 69.4 60.3Z" fill="url(#paint102_linear)"/>
<path d="M74.1998 61.1V63.9C73.3998 63.8 72.5998 63.7 71.7998 63.5V60.7C72.6998 60.8 73.3998 61 74.1998 61.1Z" fill="url(#paint103_linear)"/>
<path d="M78.9998 61.7V64.5C78.1998 64.4 77.3999 64.3 76.5999 64.2V61.4C77.4999 61.5 78.1998 61.6 78.9998 61.7Z" fill="url(#paint104_linear)"/>
<path d="M83.7999 62.2V65C82.9999 64.9 82.1999 64.9 81.3999 64.8V62C82.2999 62 83.0999 62.1 83.7999 62.2Z" fill="url(#paint105_linear)"/>
<path d="M88.6998 62.5V65.3C87.8998 65.3 87.0998 65.2 86.2998 65.2V62.4C87.0998 62.4 87.8998 62.4 88.6998 62.5Z" fill="url(#paint106_linear)"/>
<path d="M93.4998 62.6V65.4C92.6998 65.4 91.8999 65.4 91.0999 65.4V62.6C91.8999 62.6 92.6998 62.6 93.4998 62.6Z" fill="url(#paint107_linear)"/>
<path d="M98.2999 62.6V65.4C97.4999 65.4 96.6999 65.4 95.8999 65.4V62.6C96.6999 62.6 97.4999 62.6 98.2999 62.6Z" fill="url(#paint108_linear)"/>
<path d="M103.1 62.4V65.2C102.3 65.2 101.5 65.3 100.7 65.3V62.5C101.5 62.5 102.3 62.5 103.1 62.4Z" fill="url(#paint109_linear)"/>
<path d="M107.9 62.1V64.9C107.1 65 106.3 65 105.5 65.1V62.3C106.3 62.2 107.1 62.2 107.9 62.1Z" fill="url(#paint110_linear)"/>
<path d="M112.7 61.6V64.4C111.9 64.5 111.1 64.6 110.3 64.7V61.9C111.1 61.8 111.9 61.7 112.7 61.6Z" fill="url(#paint111_linear)"/>
<path d="M117.5 60.9V63.7C116.7 63.8 115.9 63.9 115.1 64.1V61.3C115.9 61.2 116.7 61.1 117.5 60.9Z" fill="url(#paint112_linear)"/>
<path d="M122.3 60.1V62.9C121.5 63.1 120.7 63.2 119.9 63.3V60.5C120.7 60.4 121.5 60.2 122.3 60.1Z" fill="url(#paint113_linear)"/>
<path d="M127.1 59V61.8C126.3 62 125.5 62.2 124.7 62.4V59.6C125.5 59.4 126.3 59.2 127.1 59Z" fill="url(#paint114_linear)"/>
<path d="M131.9 57.7V60.5C131.1 60.7 130.3 61 129.5 61.2V58.4C130.3 58.1 131.1 57.9 131.9 57.7Z" fill="url(#paint115_linear)"/>
<path d="M136.7 56.1V58.9C135.9 59.2 135.1 59.5 134.3 59.7V56.9C135.1 56.6 135.9 56.4 136.7 56.1Z" fill="url(#paint116_linear)"/>
<path d="M141.5 54.1V56.9C140.7 57.2 139.9 57.6 139.1 57.9V55.1C139.9 54.8 140.7 54.5 141.5 54.1Z" fill="url(#paint117_linear)"/>
<path d="M146.3 51.7V54.5C145.5 54.9 144.7 55.4 143.9 55.8V53C144.7 52.5 145.5 52.1 146.3 51.7Z" fill="url(#paint118_linear)"/>
<path d="M151.1 48.5V51.3C150.4 51.9 149.6 52.5 148.7 53V50.2C149.6 49.6 150.3 49.1 151.1 48.5Z" fill="url(#paint119_linear)"/>
<path d="M155.9 43.7V46.5C155.4 47.2 154.9 47.8 154.2 48.5C154 48.7 153.7 49 153.5 49.2V46.4C153.7 46.2 154 45.9 154.2 45.7C154.5 45.4 154.8 45 155.1 44.7C155.4 44.3 155.7 44 155.9 43.7Z" fill="url(#paint120_linear)"/>
<path d="M158.9 64.2V67V67.9C158.9 68.3 158.8 68.7 158.8 69.1C158.7 69.6 158.6 70.2 158.4 70.7V67.9C158.6 67.3 158.7 66.7 158.8 66.1C158.9 65.4 158.9 64.8 158.9 64.2Z" fill="url(#paint121_linear)"/>
<path d="M158.7 45.2C158.7 47 158.3 48.7 157.5 50.4C158.3 52.1 158.7 53.8 158.7 55.6C158.7 57.1 158.4 58.6 157.9 60C158.1 59.6 158.3 59.1 158.4 58.7C158.8 57.5 159 56.2 159 54.9V57.7V58.6L158.9 65.9C159 65.3 159 64.7 159 64V66.8V67.7C159 68.1 158.9 68.5 158.9 68.9L158.8 72.9C158.8 74.7 158.4 76.4 157.6 78.1C158.4 79.8 158.8 81.5 158.8 83.3C158.8 84.8 158.5 86.3 158 87.7C158.2 87.3 158.4 86.8 158.5 86.4C158.9 85.2 159.1 83.9 159.1 82.6V85.4V86.3L158.9 100.7C158.9 103.4 158 105.9 156.3 108.4C155.7 109.3 155 110.1 154.2 111C144.8 120.9 122 127.9 95.3999 127.9L103.6 112.4L104.8 110L105.1 109.4L106.9 106L110.5 99.1L115.2 90.1L115.5 89.6L119.2 82.7L120.6 80.1L120.9 79.5L122.7 76.1L122.9 75.7L126.8 68.4L129.3 63.7L130.9 60.6L131 60.5L132.1 58.4L135.6 51.7L136.3 50.4L137.8 47.5L138.1 46.9L140.8 41.8L141.4 40.6L143.1 37.4L147.4 29.3L151.7 21.1L153.9 16.9C157 20.1 158.7 23.6 158.7 27.3C158.7 28.8 158.4 30.3 157.9 31.7C158.1 31.3 158.3 30.8 158.4 30.4C158.8 29.2 159 27.9 159 26.6V29.4V30.3L158.7 45.2Z" fill="url(#paint122_linear)"/>
<path d="M135 18.5L124.5 44L94.5 42L91.5 37.5L85.125 41.0625L79.5 40.5L80 38L71 35L82.5 31L85.5 26L80 21.5L91.5 19.5L94 14L99.125 14.5625L103 17.5L108.5 15.5L114.5 16.25L135 18.5Z" fill="url(#paint123_linear)" fill-opacity="0.2"/>
<path d="M117 23C115 21.0693 113.966 23.0112 107.305 22.0693L108.5 20.5V15.5L102.5 20.5572C101.113 20.4152 100.416 19.6327 99 19.5V14.5L94.7054 17L92.5433 20.5572C91.3956 20.4499 90.0937 18.6117 89 18.5L86.5 18L79.5 18.8V21.5C79.5 21.5 84.416 22.157 84.3335 22.1796C86.4699 22.3986 86.8562 22.9792 86.7921 23.4394L84.3307 27.4933C84.4778 27.5086 84.6686 27.5308 84.8792 27.5656C84.7031 27.5476 84.5158 27.528 84.3215 27.5089L80.8714 33.1878C80.6103 33.4543 78.5 32.5 78.5 32.5L71 32.8L71 35.5L78.8656 36.4916C80.1429 36.6231 82.5 37 79.5 37.4681V40.5L84.8792 40.9875L87.0412 37.4265C88.4808 37.5869 90.3254 37.4681 89 38.4075L89.0061 41.5L94.5 42L96.4376 38.4075C105.434 39.1066 111 39.5 114.5 36.4916C116.125 35.0953 117 32.9071 116 30.5C114 28.5 112.808 31.423 113.5 29.5C113.5 29.5 118 29 117 23ZM105.826 33.99C104.195 36.6799 94.0763 33.8646 90.5 33.5L92.4855 30.0929C96.0616 30.4594 107.53 31.1848 105.826 33.99ZM107.457 27.0112C106 28.5 97.4782 26.8048 94.5 26.5L96.4376 23.5855C99.4158 23.8903 109.006 24.4592 107.457 27.0112Z" fill="#BA7016"/>
<path d="M84.7 38L84.8999 41L87 37.5L87 34L84.7 38Z" fill="black" fill-opacity="0.2"/>
<path d="M88 31.5L90.2 34L92.3 30.5V25.5L88 31.5Z" fill="black" fill-opacity="0.2"/>
<path d="M92 24L94.5 26.5L96.5 23.5V19L92 24Z" fill="black" fill-opacity="0.2"/>
<path d="M94.5 16.5L97 19L99.0001 19.5V14.5L94.5 16.5Z" fill="black" fill-opacity="0.2"/>
<path d="M104 18L106.5 20.5L108.5 21L108.5 15.5L104 18Z" fill="black" fill-opacity="0.2"/>
<path d="M94.5 38V42L96.4 38.5L96.5 34L94.5 38Z" fill="black" fill-opacity="0.2"/>
<path d="M116.88 24.0502C117.837 21.4233 112.966 20.0112 106.305 19.0693L108.466 15.5109L103.19 14.9711L101.086 18.4358C99.6992 18.2938 98.2748 18.16 96.8591 18.0273L98.9779 14.5397L93.7054 14L91.5433 17.5572C90.3956 17.4499 89.2683 17.3439 88.1746 17.2322L88.1807 17.221L80.9052 16.475L79.5017 18.7886C79.5017 18.7886 83.416 19.157 83.3335 19.1796C85.4699 19.3986 85.8562 19.9792 85.7921 20.4394L83.3307 24.4933C83.4778 24.5086 83.6686 24.5308 83.8792 24.5656C83.7031 24.5476 83.5158 24.528 83.3215 24.5089L79.8714 30.1878C79.6103 30.4543 78.9476 30.8542 77.4539 30.7023C77.5068 30.7338 73.6194 30.3094 73.6194 30.3094L71 32.7889L77.8656 33.4916C79.1429 33.6231 80.3945 33.7607 81.6271 33.8901L79.4439 37.4893L84.7137 38.0291L86.8757 34.4681C88.3153 34.6285 89.7124 34.7765 91.0801 34.9161L88.9254 38.4603L94.2015 39L96.3844 35.4076C105.381 36.1066 112.145 35.8248 114.993 32.4838C117.287 29.794 114.879 28.2425 110.146 27.2308C113.593 26.9044 116.189 25.9735 116.882 24.0505L116.88 24.0502ZM104.826 30.9901C103.195 33.6799 92.1647 32.2258 88.5884 31.8612L91.4855 27.0929C95.0616 27.4595 106.53 28.1848 104.826 30.9901ZM106.457 24.0113C104.97 26.4579 95.7892 25.2149 92.811 24.9101L95.4376 20.5855C98.4158 20.8903 108.006 21.4592 106.457 24.0113Z" fill="white"/>
<defs>
<linearGradient id="paint0_linear" x1="48.3274" y1="101.067" x2="193.99" y2="101.067" gradientUnits="userSpaceOnUse">
<stop stop-color="#A4B5CE"/>
<stop offset="1" stop-color="#E0EAF8"/>
</linearGradient>
<linearGradient id="paint1_linear" x1="136.369" y1="100.091" x2="4.61021" y2="47.0217" gradientUnits="userSpaceOnUse">
<stop stop-color="#E7EAF7"/>
<stop offset="1" stop-color="white"/>
</linearGradient>
<linearGradient id="paint2_linear" x1="134.278" y1="109.153" x2="9.4812" y2="58.8874" gradientUnits="userSpaceOnUse">
<stop stop-color="#E7EAF7"/>
<stop offset="1" stop-color="white"/>
</linearGradient>
<linearGradient id="paint3_linear" x1="31.8183" y1="97.9582" x2="158.908" y2="97.9582" gradientUnits="userSpaceOnUse">
<stop stop-color="#8498B6"/>
<stop offset="1" stop-color="#98A8C8"/>
</linearGradient>
<linearGradient id="paint4_linear" x1="36.2831" y1="83.2748" x2="153.451" y2="83.2748" gradientUnits="userSpaceOnUse">
<stop stop-color="#3A4F6D"/>
<stop offset="1" stop-color="#66779E"/>
</linearGradient>
<linearGradient id="paint5_linear" x1="151.094" y1="122.215" x2="35.8346" y2="75.791" gradientUnits="userSpaceOnUse">
<stop stop-color="#8498B6"/>
<stop offset="1" stop-color="#98A8C8"/>
</linearGradient>
<linearGradient id="paint6_linear" x1="151.093" y1="94.2671" x2="35.8349" y2="47.8435" gradientUnits="userSpaceOnUse">
<stop stop-color="#8498B6"/>
<stop offset="1" stop-color="#98A8C8"/>
</linearGradient>
<linearGradient id="paint7_linear" x1="136.368" y1="72.1461" x2="4.61321" y2="19.0781" gradientUnits="userSpaceOnUse">
<stop stop-color="#E7EAF7"/>
<stop offset="1" stop-color="white"/>
</linearGradient>
<linearGradient id="paint8_linear" x1="134.278" y1="81.2055" x2="9.4812" y2="30.9402" gradientUnits="userSpaceOnUse">
<stop stop-color="#E7EAF7"/>
<stop offset="1" stop-color="white"/>
</linearGradient>
<linearGradient id="paint9_linear" x1="31.8183" y1="70.0111" x2="158.908" y2="70.0111" gradientUnits="userSpaceOnUse">
<stop stop-color="#8498B6"/>
<stop offset="1" stop-color="#98A8C8"/>
</linearGradient>
<linearGradient id="paint10_linear" x1="33.4461" y1="73.4503" x2="35.8148" y2="73.4503" gradientUnits="userSpaceOnUse">
<stop stop-color="#8498B6"/>
<stop offset="1" stop-color="#98A8C8"/>
</linearGradient>
<linearGradient id="paint11_linear" x1="38.2492" y1="78.5017" x2="40.6179" y2="78.5017" gradientUnits="userSpaceOnUse">
<stop stop-color="#8498B6"/>
<stop offset="1" stop-color="#98A8C8"/>
</linearGradient>
<linearGradient id="paint12_linear" x1="43.0526" y1="81.7601" x2="45.4212" y2="81.7601" gradientUnits="userSpaceOnUse">
<stop stop-color="#8498B6"/>
<stop offset="1" stop-color="#98A8C8"/>
</linearGradient>
<linearGradient id="paint13_linear" x1="47.8559" y1="84.2334" x2="50.2246" y2="84.2334" gradientUnits="userSpaceOnUse">
<stop stop-color="#8498B6"/>
<stop offset="1" stop-color="#98A8C8"/>
</linearGradient>
<linearGradient id="paint14_linear" x1="52.6592" y1="86.2144" x2="55.0278" y2="86.2144" gradientUnits="userSpaceOnUse">
<stop stop-color="#8498B6"/>
<stop offset="1" stop-color="#98A8C8"/>
</linearGradient>
<linearGradient id="paint15_linear" x1="57.4625" y1="87.8291" x2="59.8312" y2="87.8291" gradientUnits="userSpaceOnUse">
<stop stop-color="#8498B6"/>
<stop offset="1" stop-color="#98A8C8"/>
</linearGradient>
<linearGradient id="paint16_linear" x1="62.2656" y1="89.1549" x2="64.6343" y2="89.1549" gradientUnits="userSpaceOnUse">
<stop stop-color="#8498B6"/>
<stop offset="1" stop-color="#98A8C8"/>
</linearGradient>
<linearGradient id="paint17_linear" x1="67.069" y1="90.2385" x2="69.4376" y2="90.2385" gradientUnits="userSpaceOnUse">
<stop stop-color="#8498B6"/>
<stop offset="1" stop-color="#98A8C8"/>
</linearGradient>
<linearGradient id="paint18_linear" x1="71.8722" y1="91.1107" x2="74.2409" y2="91.1107" gradientUnits="userSpaceOnUse">
<stop stop-color="#8498B6"/>
<stop offset="1" stop-color="#98A8C8"/>
</linearGradient>
<linearGradient id="paint19_linear" x1="76.6756" y1="91.7911" x2="79.0442" y2="91.7911" gradientUnits="userSpaceOnUse">
<stop stop-color="#8498B6"/>
<stop offset="1" stop-color="#98A8C8"/>
</linearGradient>
<linearGradient id="paint20_linear" x1="81.4789" y1="92.2931" x2="83.8476" y2="92.2931" gradientUnits="userSpaceOnUse">
<stop stop-color="#8498B6"/>
<stop offset="1" stop-color="#98A8C8"/>
</linearGradient>
<linearGradient id="paint21_linear" x1="86.2821" y1="92.6285" x2="88.6508" y2="92.6285" gradientUnits="userSpaceOnUse">
<stop stop-color="#8498B6"/>
<stop offset="1" stop-color="#98A8C8"/>
</linearGradient>
<linearGradient id="paint22_linear" x1="91.0854" y1="92.8029" x2="93.454" y2="92.8029" gradientUnits="userSpaceOnUse">
<stop stop-color="#8498B6"/>
<stop offset="1" stop-color="#98A8C8"/>
</linearGradient>
<linearGradient id="paint23_linear" x1="95.8887" y1="92.8281" x2="98.2574" y2="92.8281" gradientUnits="userSpaceOnUse">
<stop stop-color="#8498B6"/>
<stop offset="1" stop-color="#98A8C8"/>
</linearGradient>
<linearGradient id="paint24_linear" x1="100.692" y1="92.6943" x2="103.061" y2="92.6943" gradientUnits="userSpaceOnUse">
<stop stop-color="#8498B6"/>
<stop offset="1" stop-color="#98A8C8"/>
</linearGradient>
<linearGradient id="paint25_linear" x1="105.495" y1="92.4056" x2="107.864" y2="92.4056" gradientUnits="userSpaceOnUse">
<stop stop-color="#8498B6"/>
<stop offset="1" stop-color="#98A8C8"/>
</linearGradient>
<linearGradient id="paint26_linear" x1="110.298" y1="91.952" x2="112.667" y2="91.952" gradientUnits="userSpaceOnUse">
<stop stop-color="#8498B6"/>
<stop offset="1" stop-color="#98A8C8"/>
</linearGradient>
<linearGradient id="paint27_linear" x1="115.102" y1="91.3239" x2="117.47" y2="91.3239" gradientUnits="userSpaceOnUse">
<stop stop-color="#8498B6"/>
<stop offset="1" stop-color="#98A8C8"/>
</linearGradient>
<linearGradient id="paint28_linear" x1="119.905" y1="90.5079" x2="122.274" y2="90.5079" gradientUnits="userSpaceOnUse">
<stop stop-color="#8498B6"/>
<stop offset="1" stop-color="#98A8C8"/>
</linearGradient>
<linearGradient id="paint29_linear" x1="124.708" y1="89.4883" x2="127.077" y2="89.4883" gradientUnits="userSpaceOnUse">
<stop stop-color="#8498B6"/>
<stop offset="1" stop-color="#98A8C8"/>
</linearGradient>
<linearGradient id="paint30_linear" x1="129.511" y1="88.2361" x2="131.88" y2="88.2361" gradientUnits="userSpaceOnUse">
<stop stop-color="#8498B6"/>
<stop offset="1" stop-color="#98A8C8"/>
</linearGradient>
<linearGradient id="paint31_linear" x1="134.315" y1="86.7087" x2="136.683" y2="86.7087" gradientUnits="userSpaceOnUse">
<stop stop-color="#8498B6"/>
<stop offset="1" stop-color="#98A8C8"/>
</linearGradient>
<linearGradient id="paint32_linear" x1="139.118" y1="84.8459" x2="141.487" y2="84.8459" gradientUnits="userSpaceOnUse">
<stop stop-color="#8498B6"/>
<stop offset="1" stop-color="#98A8C8"/>
</linearGradient>
<linearGradient id="paint33_linear" x1="143.922" y1="82.5334" x2="146.29" y2="82.5334" gradientUnits="userSpaceOnUse">
<stop stop-color="#8498B6"/>
<stop offset="1" stop-color="#98A8C8"/>
</linearGradient>
<linearGradient id="paint34_linear" x1="148.725" y1="79.5444" x2="151.093" y2="79.5444" gradientUnits="userSpaceOnUse">
<stop stop-color="#8498B6"/>
<stop offset="1" stop-color="#98A8C8"/>
</linearGradient>
<linearGradient id="paint35_linear" x1="153.528" y1="75.2471" x2="155.897" y2="75.2471" gradientUnits="userSpaceOnUse">
<stop stop-color="#8498B6"/>
<stop offset="1" stop-color="#98A8C8"/>
</linearGradient>
<linearGradient id="paint36_linear" x1="158.335" y1="67.4433" x2="158.908" y2="67.4433" gradientUnits="userSpaceOnUse">
<stop stop-color="#8498B6"/>
<stop offset="1" stop-color="#98A8C8"/>
</linearGradient>
<linearGradient id="paint37_linear" x1="36.2831" y1="55.3275" x2="153.451" y2="55.3275" gradientUnits="userSpaceOnUse">
<stop stop-color="#3A4F6D"/>
<stop offset="1" stop-color="#66779E"/>
</linearGradient>
<linearGradient id="paint38_linear" x1="136.37" y1="44.1994" x2="4.63056" y2="-8.86229" gradientUnits="userSpaceOnUse">
<stop stop-color="#E7EAF7"/>
<stop offset="1" stop-color="white"/>
</linearGradient>
<linearGradient id="paint39_linear" x1="134.278" y1="53.2583" x2="9.4812" y2="2.99295" gradientUnits="userSpaceOnUse">
<stop stop-color="#E7EAF7"/>
<stop offset="1" stop-color="white"/>
</linearGradient>
<linearGradient id="paint40_linear" x1="31.8183" y1="42.0641" x2="158.908" y2="42.0641" gradientUnits="userSpaceOnUse">
<stop stop-color="#8498B6"/>
<stop offset="1" stop-color="#98A8C8"/>
</linearGradient>
<linearGradient id="paint41_linear" x1="35.9833" y1="27.5803" x2="153.151" y2="27.5803" gradientUnits="userSpaceOnUse">
<stop stop-color="#E27D03"/>
<stop offset="1" stop-color="#F5AA4F"/>
</linearGradient>
<linearGradient id="paint42_linear" x1="151.096" y1="66.3201" x2="35.8353" y2="19.8957" gradientUnits="userSpaceOnUse">
<stop stop-color="#8498B6"/>
<stop offset="1" stop-color="#98A8C8"/>
</linearGradient>
<linearGradient id="paint43_linear" x1="33.4461" y1="73.4503" x2="35.8148" y2="73.4503" gradientUnits="userSpaceOnUse">
<stop offset="0.1344" stop-color="#FADF7B"/>
<stop offset="0.3487" stop-color="#FBDD75"/>
<stop offset="0.6234" stop-color="#FBD763"/>
<stop offset="0.9298" stop-color="#FBCD44"/>
<stop offset="1" stop-color="#FBCB3B"/>
</linearGradient>
<linearGradient id="paint44_linear" x1="38.2495" y1="78.5017" x2="40.6182" y2="78.5017" gradientUnits="userSpaceOnUse">
<stop offset="0.1344" stop-color="#FADF7B"/>
<stop offset="0.3487" stop-color="#FBDD75"/>
<stop offset="0.6234" stop-color="#FBD763"/>
<stop offset="0.9298" stop-color="#FBCD44"/>
<stop offset="1" stop-color="#FBCB3B"/>
</linearGradient>
<linearGradient id="paint45_linear" x1="43.0528" y1="81.7601" x2="45.4215" y2="81.7601" gradientUnits="userSpaceOnUse">
<stop offset="0.1344" stop-color="#FADF7B"/>
<stop offset="0.3487" stop-color="#FBDD75"/>
<stop offset="0.6234" stop-color="#FBD763"/>
<stop offset="0.9298" stop-color="#FBCD44"/>
<stop offset="1" stop-color="#FBCB3B"/>
</linearGradient>
<linearGradient id="paint46_linear" x1="47.8559" y1="84.2334" x2="50.2246" y2="84.2334" gradientUnits="userSpaceOnUse">
<stop offset="0.1344" stop-color="#FADF7B"/>
<stop offset="0.3487" stop-color="#FBDD75"/>
<stop offset="0.6234" stop-color="#FBD763"/>
<stop offset="0.9298" stop-color="#FBCD44"/>
<stop offset="1" stop-color="#FBCB3B"/>
</linearGradient>
<linearGradient id="paint47_linear" x1="52.6592" y1="86.2144" x2="55.0278" y2="86.2144" gradientUnits="userSpaceOnUse">
<stop offset="0.1344" stop-color="#FADF7B"/>
<stop offset="0.3487" stop-color="#FBDD75"/>
<stop offset="0.6234" stop-color="#FBD763"/>
<stop offset="0.9298" stop-color="#FBCD44"/>
<stop offset="1" stop-color="#FBCB3B"/>
</linearGradient>
<linearGradient id="paint48_linear" x1="57.4625" y1="87.8291" x2="59.8312" y2="87.8291" gradientUnits="userSpaceOnUse">
<stop offset="0.1344" stop-color="#FADF7B"/>
<stop offset="0.3487" stop-color="#FBDD75"/>
<stop offset="0.6234" stop-color="#FBD763"/>
<stop offset="0.9298" stop-color="#FBCD44"/>
<stop offset="1" stop-color="#FBCB3B"/>
</linearGradient>
<linearGradient id="paint49_linear" x1="62.2659" y1="89.1549" x2="64.6346" y2="89.1549" gradientUnits="userSpaceOnUse">
<stop offset="0.1344" stop-color="#FADF7B"/>
<stop offset="0.3487" stop-color="#FBDD75"/>
<stop offset="0.6234" stop-color="#FBD763"/>
<stop offset="0.9298" stop-color="#FBCD44"/>
<stop offset="1" stop-color="#FBCB3B"/>
</linearGradient>
<linearGradient id="paint50_linear" x1="67.0692" y1="90.2385" x2="69.4379" y2="90.2385" gradientUnits="userSpaceOnUse">
<stop offset="0.1344" stop-color="#FADF7B"/>
<stop offset="0.3487" stop-color="#FBDD75"/>
<stop offset="0.6234" stop-color="#FBD763"/>
<stop offset="0.9298" stop-color="#FBCD44"/>
<stop offset="1" stop-color="#FBCB3B"/>
</linearGradient>
<linearGradient id="paint51_linear" x1="71.8722" y1="91.1107" x2="74.2409" y2="91.1107" gradientUnits="userSpaceOnUse">
<stop offset="0.1344" stop-color="#FADF7B"/>
<stop offset="0.3487" stop-color="#FBDD75"/>
<stop offset="0.6234" stop-color="#FBD763"/>
<stop offset="0.9298" stop-color="#FBCD44"/>
<stop offset="1" stop-color="#FBCB3B"/>
</linearGradient>
<linearGradient id="paint52_linear" x1="76.6756" y1="91.7911" x2="79.0442" y2="91.7911" gradientUnits="userSpaceOnUse">
<stop offset="0.1344" stop-color="#FADF7B"/>
<stop offset="0.3487" stop-color="#FBDD75"/>
<stop offset="0.6234" stop-color="#FBD763"/>
<stop offset="0.9298" stop-color="#FBCD44"/>
<stop offset="1" stop-color="#FBCB3B"/>
</linearGradient>
<linearGradient id="paint53_linear" x1="81.4789" y1="92.2931" x2="83.8476" y2="92.2931" gradientUnits="userSpaceOnUse">
<stop offset="0.1344" stop-color="#FADF7B"/>
<stop offset="0.3487" stop-color="#FBDD75"/>
<stop offset="0.6234" stop-color="#FBD763"/>
<stop offset="0.9298" stop-color="#FBCD44"/>
<stop offset="1" stop-color="#FBCB3B"/>
</linearGradient>
<linearGradient id="paint54_linear" x1="158.052" y1="74.3005" x2="81.6808" y2="94.1305" gradientUnits="userSpaceOnUse">
<stop offset="0.1344" stop-color="#FADF7B"/>
<stop offset="0.3487" stop-color="#FBDD75"/>
<stop offset="0.6234" stop-color="#FBD763"/>
<stop offset="0.9298" stop-color="#FBCD44"/>
<stop offset="1" stop-color="#FBCB3B"/>
</linearGradient>
<linearGradient id="paint55_linear" x1="158.398" y1="75.6323" x2="82.0267" y2="95.4625" gradientUnits="userSpaceOnUse">
<stop offset="0.1344" stop-color="#FADF7B"/>
<stop offset="0.3487" stop-color="#FBDD75"/>
<stop offset="0.6234" stop-color="#FBD763"/>
<stop offset="0.9298" stop-color="#FBCD44"/>
<stop offset="1" stop-color="#FBCB3B"/>
</linearGradient>
<linearGradient id="paint56_linear" x1="158.708" y1="76.8244" x2="82.3363" y2="96.6547" gradientUnits="userSpaceOnUse">
<stop offset="0.1344" stop-color="#FADF7B"/>
<stop offset="0.3487" stop-color="#FBDD75"/>
<stop offset="0.6234" stop-color="#FBD763"/>
<stop offset="0.9298" stop-color="#FBCD44"/>
<stop offset="1" stop-color="#FBCB3B"/>
</linearGradient>
<linearGradient id="paint57_linear" x1="158.978" y1="77.8675" x2="82.6071" y2="97.6979" gradientUnits="userSpaceOnUse">
<stop stop-color="#6E82A2"/>
<stop offset="1" stop-color="#818DAC"/>
</linearGradient>
<linearGradient id="paint58_linear" x1="159.211" y1="78.7653" x2="82.8403" y2="98.5955" gradientUnits="userSpaceOnUse">
<stop stop-color="#6E82A2"/>
<stop offset="1" stop-color="#818DAC"/>
</linearGradient>
<linearGradient id="paint59_linear" x1="159.404" y1="79.5088" x2="83.0332" y2="99.339" gradientUnits="userSpaceOnUse">
<stop stop-color="#6E82A2"/>
<stop offset="1" stop-color="#818DAC"/>
</linearGradient>
<linearGradient id="paint60_linear" x1="159.555" y1="80.0889" x2="83.1839" y2="99.9191" gradientUnits="userSpaceOnUse">
<stop stop-color="#6E82A2"/>
<stop offset="1" stop-color="#818DAC"/>
</linearGradient>
<linearGradient id="paint61_linear" x1="159.66" y1="80.4928" x2="83.2887" y2="100.323" gradientUnits="userSpaceOnUse">
<stop stop-color="#6E82A2"/>
<stop offset="1" stop-color="#818DAC"/>
</linearGradient>
<linearGradient id="paint62_linear" x1="159.716" y1="80.7078" x2="83.3445" y2="100.538" gradientUnits="userSpaceOnUse">
<stop stop-color="#6E82A2"/>
<stop offset="1" stop-color="#818DAC"/>
</linearGradient>
<linearGradient id="paint63_linear" x1="159.714" y1="80.7014" x2="83.3432" y2="100.532" gradientUnits="userSpaceOnUse">
<stop stop-color="#6E82A2"/>
<stop offset="1" stop-color="#818DAC"/>
</linearGradient>
<linearGradient id="paint64_linear" x1="159.646" y1="80.4388" x2="83.2748" y2="100.269" gradientUnits="userSpaceOnUse">
<stop stop-color="#6E82A2"/>
<stop offset="1" stop-color="#818DAC"/>
</linearGradient>
<linearGradient id="paint65_linear" x1="159.496" y1="79.8622" x2="83.1252" y2="99.6923" gradientUnits="userSpaceOnUse">
<stop stop-color="#6E82A2"/>
<stop offset="1" stop-color="#818DAC"/>
</linearGradient>
<linearGradient id="paint66_linear" x1="159.237" y1="78.8642" x2="82.8657" y2="98.6945" gradientUnits="userSpaceOnUse">
<stop stop-color="#6E82A2"/>
<stop offset="1" stop-color="#818DAC"/>
</linearGradient>
<linearGradient id="paint67_linear" x1="158.813" y1="77.2324" x2="82.442" y2="97.0629" gradientUnits="userSpaceOnUse">
<stop stop-color="#6E82A2"/>
<stop offset="1" stop-color="#818DAC"/>
</linearGradient>
<linearGradient id="paint68_linear" x1="158.071" y1="74.3749" x2="81.7006" y2="94.2051" gradientUnits="userSpaceOnUse">
<stop stop-color="#6E82A2"/>
<stop offset="1" stop-color="#818DAC"/>
</linearGradient>
<linearGradient id="paint69_linear" x1="33.4461" y1="100.47" x2="35.8148" y2="100.47" gradientUnits="userSpaceOnUse">
<stop offset="0.1344" stop-color="#FADF7B"/>
<stop offset="0.3487" stop-color="#FBDD75"/>
<stop offset="0.6234" stop-color="#FBD763"/>
<stop offset="0.9298" stop-color="#FBCD44"/>
<stop offset="1" stop-color="#FBCB3B"/>
</linearGradient>
<linearGradient id="paint70_linear" x1="38.2495" y1="105.521" x2="40.6182" y2="105.521" gradientUnits="userSpaceOnUse">
<stop offset="0.1344" stop-color="#FADF7B"/>
<stop offset="0.3487" stop-color="#FBDD75"/>
<stop offset="0.6234" stop-color="#FBD763"/>
<stop offset="0.9298" stop-color="#FBCD44"/>
<stop offset="1" stop-color="#FBCB3B"/>
</linearGradient>
<linearGradient id="paint71_linear" x1="43.0528" y1="108.78" x2="45.4215" y2="108.78" gradientUnits="userSpaceOnUse">
<stop offset="0.1344" stop-color="#FADF7B"/>
<stop offset="0.3487" stop-color="#FBDD75"/>
<stop offset="0.6234" stop-color="#FBD763"/>
<stop offset="0.9298" stop-color="#FBCD44"/>
<stop offset="1" stop-color="#FBCB3B"/>
</linearGradient>
<linearGradient id="paint72_linear" x1="47.8559" y1="111.253" x2="50.2246" y2="111.253" gradientUnits="userSpaceOnUse">
<stop offset="0.1344" stop-color="#FADF7B"/>
<stop offset="0.3487" stop-color="#FBDD75"/>
<stop offset="0.6234" stop-color="#FBD763"/>
<stop offset="0.9298" stop-color="#FBCD44"/>
<stop offset="1" stop-color="#FBCB3B"/>
</linearGradient>
<linearGradient id="paint73_linear" x1="52.6592" y1="113.234" x2="55.0278" y2="113.234" gradientUnits="userSpaceOnUse">
<stop offset="0.1344" stop-color="#FADF7B"/>
<stop offset="0.3487" stop-color="#FBDD75"/>
<stop offset="0.6234" stop-color="#FBD763"/>
<stop offset="0.9298" stop-color="#FBCD44"/>
<stop offset="1" stop-color="#FBCB3B"/>
</linearGradient>
<linearGradient id="paint74_linear" x1="57.4625" y1="114.849" x2="59.8312" y2="114.849" gradientUnits="userSpaceOnUse">
<stop offset="0.1344" stop-color="#FADF7B"/>
<stop offset="0.3487" stop-color="#FBDD75"/>
<stop offset="0.6234" stop-color="#FBD763"/>
<stop offset="0.9298" stop-color="#FBCD44"/>
<stop offset="1" stop-color="#FBCB3B"/>
</linearGradient>
<linearGradient id="paint75_linear" x1="62.2659" y1="116.175" x2="64.6346" y2="116.175" gradientUnits="userSpaceOnUse">
<stop offset="0.1344" stop-color="#FADF7B"/>
<stop offset="0.3487" stop-color="#FBDD75"/>
<stop offset="0.6234" stop-color="#FBD763"/>
<stop offset="0.9298" stop-color="#FBCD44"/>
<stop offset="1" stop-color="#FBCB3B"/>
</linearGradient>
<linearGradient id="paint76_linear" x1="67.0692" y1="117.258" x2="69.4379" y2="117.258" gradientUnits="userSpaceOnUse">
<stop stop-color="#6E82A2"/>
<stop offset="1" stop-color="#818DAC"/>
</linearGradient>
<linearGradient id="paint77_linear" x1="71.8722" y1="118.13" x2="74.2409" y2="118.13" gradientUnits="userSpaceOnUse">
<stop stop-color="#6E82A2"/>
<stop offset="1" stop-color="#818DAC"/>
</linearGradient>
<linearGradient id="paint78_linear" x1="76.6756" y1="118.811" x2="79.0442" y2="118.811" gradientUnits="userSpaceOnUse">
<stop stop-color="#6E82A2"/>
<stop offset="1" stop-color="#818DAC"/>
</linearGradient>
<linearGradient id="paint79_linear" x1="81.4789" y1="119.313" x2="83.8476" y2="119.313" gradientUnits="userSpaceOnUse">
<stop stop-color="#6E82A2"/>
<stop offset="1" stop-color="#818DAC"/>
</linearGradient>
<linearGradient id="paint80_linear" x1="158.052" y1="101.32" x2="81.6808" y2="121.15" gradientUnits="userSpaceOnUse">
<stop stop-color="#6E82A2"/>
<stop offset="1" stop-color="#818DAC"/>
</linearGradient>
<linearGradient id="paint81_linear" x1="158.398" y1="102.652" x2="82.0267" y2="122.482" gradientUnits="userSpaceOnUse">
<stop stop-color="#6E82A2"/>
<stop offset="1" stop-color="#818DAC"/>
</linearGradient>
<linearGradient id="paint82_linear" x1="158.708" y1="103.844" x2="82.3363" y2="123.674" gradientUnits="userSpaceOnUse">
<stop stop-color="#6E82A2"/>
<stop offset="1" stop-color="#818DAC"/>
</linearGradient>
<linearGradient id="paint83_linear" x1="158.978" y1="104.887" x2="82.6071" y2="124.717" gradientUnits="userSpaceOnUse">
<stop stop-color="#6E82A2"/>
<stop offset="1" stop-color="#818DAC"/>
</linearGradient>
<linearGradient id="paint84_linear" x1="159.211" y1="105.785" x2="82.8403" y2="125.615" gradientUnits="userSpaceOnUse">
<stop stop-color="#6E82A2"/>
<stop offset="1" stop-color="#818DAC"/>
</linearGradient>
<linearGradient id="paint85_linear" x1="159.404" y1="106.529" x2="83.0332" y2="126.359" gradientUnits="userSpaceOnUse">
<stop stop-color="#6E82A2"/>
<stop offset="1" stop-color="#818DAC"/>
</linearGradient>
<linearGradient id="paint86_linear" x1="159.555" y1="107.109" x2="83.1839" y2="126.939" gradientUnits="userSpaceOnUse">
<stop stop-color="#6E82A2"/>
<stop offset="1" stop-color="#818DAC"/>
</linearGradient>
<linearGradient id="paint87_linear" x1="159.66" y1="107.512" x2="83.2887" y2="127.343" gradientUnits="userSpaceOnUse">
<stop stop-color="#6E82A2"/>
<stop offset="1" stop-color="#818DAC"/>
</linearGradient>
<linearGradient id="paint88_linear" x1="159.716" y1="107.728" x2="83.3445" y2="127.558" gradientUnits="userSpaceOnUse">
<stop stop-color="#6E82A2"/>
<stop offset="1" stop-color="#818DAC"/>
</linearGradient>
<linearGradient id="paint89_linear" x1="159.714" y1="107.721" x2="83.3432" y2="127.551" gradientUnits="userSpaceOnUse">
<stop stop-color="#6E82A2"/>
<stop offset="1" stop-color="#818DAC"/>
</linearGradient>
<linearGradient id="paint90_linear" x1="159.646" y1="107.459" x2="83.2748" y2="127.289" gradientUnits="userSpaceOnUse">
<stop stop-color="#6E82A2"/>
<stop offset="1" stop-color="#818DAC"/>
</linearGradient>
<linearGradient id="paint91_linear" x1="159.496" y1="106.882" x2="83.1252" y2="126.712" gradientUnits="userSpaceOnUse">
<stop stop-color="#6E82A2"/>
<stop offset="1" stop-color="#818DAC"/>
</linearGradient>
<linearGradient id="paint92_linear" x1="159.237" y1="105.884" x2="82.8657" y2="125.714" gradientUnits="userSpaceOnUse">
<stop stop-color="#6E82A2"/>
<stop offset="1" stop-color="#818DAC"/>
</linearGradient>
<linearGradient id="paint93_linear" x1="158.813" y1="104.252" x2="82.442" y2="124.082" gradientUnits="userSpaceOnUse">
<stop stop-color="#6E82A2"/>
<stop offset="1" stop-color="#818DAC"/>
</linearGradient>
<linearGradient id="paint94_linear" x1="158.071" y1="101.395" x2="81.7006" y2="121.225" gradientUnits="userSpaceOnUse">
<stop stop-color="#6E82A2"/>
<stop offset="1" stop-color="#818DAC"/>
</linearGradient>
<linearGradient id="paint95_linear" x1="33.4461" y1="44.6524" x2="35.8148" y2="44.6524" gradientUnits="userSpaceOnUse">
<stop offset="0.1344" stop-color="#FADF7B"/>
<stop offset="0.3487" stop-color="#FBDD75"/>
<stop offset="0.6234" stop-color="#FBD763"/>
<stop offset="0.9298" stop-color="#FBCD44"/>
<stop offset="1" stop-color="#FBCB3B"/>
</linearGradient>
<linearGradient id="paint96_linear" x1="38.2495" y1="49.7038" x2="40.6182" y2="49.7038" gradientUnits="userSpaceOnUse">
<stop offset="0.1344" stop-color="#FADF7B"/>
<stop offset="0.3487" stop-color="#FBDD75"/>
<stop offset="0.6234" stop-color="#FBD763"/>
<stop offset="0.9298" stop-color="#FBCD44"/>
<stop offset="1" stop-color="#FBCB3B"/>
</linearGradient>
<linearGradient id="paint97_linear" x1="43.0528" y1="52.9622" x2="45.4215" y2="52.9622" gradientUnits="userSpaceOnUse">
<stop offset="0.1344" stop-color="#FADF7B"/>
<stop offset="0.3487" stop-color="#FBDD75"/>
<stop offset="0.6234" stop-color="#FBD763"/>
<stop offset="0.9298" stop-color="#FBCD44"/>
<stop offset="1" stop-color="#FBCB3B"/>
</linearGradient>
<linearGradient id="paint98_linear" x1="47.8559" y1="55.4355" x2="50.2246" y2="55.4355" gradientUnits="userSpaceOnUse">
<stop offset="0.1344" stop-color="#FADF7B"/>
<stop offset="0.3487" stop-color="#FBDD75"/>
<stop offset="0.6234" stop-color="#FBD763"/>
<stop offset="0.9298" stop-color="#FBCD44"/>
<stop offset="1" stop-color="#FBCB3B"/>
</linearGradient>
<linearGradient id="paint99_linear" x1="52.6592" y1="57.4165" x2="55.0278" y2="57.4165" gradientUnits="userSpaceOnUse">
<stop offset="0.1344" stop-color="#FADF7B"/>
<stop offset="0.3487" stop-color="#FBDD75"/>
<stop offset="0.6234" stop-color="#FBD763"/>
<stop offset="0.9298" stop-color="#FBCD44"/>
<stop offset="1" stop-color="#FBCB3B"/>
</linearGradient>
<linearGradient id="paint100_linear" x1="57.4625" y1="59.0312" x2="59.8312" y2="59.0312" gradientUnits="userSpaceOnUse">
<stop stop-color="#6E82A2"/>
<stop offset="1" stop-color="#818DAC"/>
</linearGradient>
<linearGradient id="paint101_linear" x1="62.2659" y1="60.357" x2="64.6346" y2="60.357" gradientUnits="userSpaceOnUse">
<stop stop-color="#6E82A2"/>
<stop offset="1" stop-color="#818DAC"/>
</linearGradient>
<linearGradient id="paint102_linear" x1="67.0692" y1="61.4407" x2="69.4379" y2="61.4407" gradientUnits="userSpaceOnUse">
<stop stop-color="#6E82A2"/>
<stop offset="1" stop-color="#818DAC"/>
</linearGradient>
<linearGradient id="paint103_linear" x1="71.8722" y1="62.3128" x2="74.2409" y2="62.3128" gradientUnits="userSpaceOnUse">
<stop stop-color="#6E82A2"/>
<stop offset="1" stop-color="#818DAC"/>
</linearGradient>
<linearGradient id="paint104_linear" x1="76.6756" y1="62.9932" x2="79.0442" y2="62.9932" gradientUnits="userSpaceOnUse">
<stop stop-color="#6E82A2"/>
<stop offset="1" stop-color="#818DAC"/>
</linearGradient>
<linearGradient id="paint105_linear" x1="81.4789" y1="63.4952" x2="83.8476" y2="63.4952" gradientUnits="userSpaceOnUse">
<stop stop-color="#6E82A2"/>
<stop offset="1" stop-color="#818DAC"/>
</linearGradient>
<linearGradient id="paint106_linear" x1="158.052" y1="45.5026" x2="81.6808" y2="65.3326" gradientUnits="userSpaceOnUse">
<stop stop-color="#6E82A2"/>
<stop offset="1" stop-color="#818DAC"/>
</linearGradient>
<linearGradient id="paint107_linear" x1="158.398" y1="46.8345" x2="82.0268" y2="66.6648" gradientUnits="userSpaceOnUse">
<stop stop-color="#6E82A2"/>
<stop offset="1" stop-color="#818DAC"/>
</linearGradient>
<linearGradient id="paint108_linear" x1="158.708" y1="48.0266" x2="82.3363" y2="67.857" gradientUnits="userSpaceOnUse">
<stop stop-color="#6E82A2"/>
<stop offset="1" stop-color="#818DAC"/>
</linearGradient>
<linearGradient id="paint109_linear" x1="158.978" y1="49.0696" x2="82.6071" y2="68.9" gradientUnits="userSpaceOnUse">
<stop stop-color="#6E82A2"/>
<stop offset="1" stop-color="#818DAC"/>
</linearGradient>
<linearGradient id="paint110_linear" x1="159.211" y1="49.9674" x2="82.8403" y2="69.7976" gradientUnits="userSpaceOnUse">
<stop stop-color="#6E82A2"/>
<stop offset="1" stop-color="#818DAC"/>
</linearGradient>
<linearGradient id="paint111_linear" x1="159.404" y1="50.711" x2="83.0333" y2="70.5412" gradientUnits="userSpaceOnUse">
<stop stop-color="#6E82A2"/>
<stop offset="1" stop-color="#818DAC"/>
</linearGradient>
<linearGradient id="paint112_linear" x1="159.555" y1="51.291" x2="83.1839" y2="71.1211" gradientUnits="userSpaceOnUse">
<stop stop-color="#6E82A2"/>
<stop offset="1" stop-color="#818DAC"/>
</linearGradient>
<linearGradient id="paint113_linear" x1="159.66" y1="51.6949" x2="83.2887" y2="71.5254" gradientUnits="userSpaceOnUse">
<stop stop-color="#6E82A2"/>
<stop offset="1" stop-color="#818DAC"/>
</linearGradient>
<linearGradient id="paint114_linear" x1="159.716" y1="51.9099" x2="83.3445" y2="71.7404" gradientUnits="userSpaceOnUse">
<stop stop-color="#6E82A2"/>
<stop offset="1" stop-color="#818DAC"/>
</linearGradient>
<linearGradient id="paint115_linear" x1="159.714" y1="51.9035" x2="83.3432" y2="71.7336" gradientUnits="userSpaceOnUse">
<stop stop-color="#6E82A2"/>
<stop offset="1" stop-color="#818DAC"/>
</linearGradient>
<linearGradient id="paint116_linear" x1="159.646" y1="51.6409" x2="83.2748" y2="71.4712" gradientUnits="userSpaceOnUse">
<stop stop-color="#6E82A2"/>
<stop offset="1" stop-color="#818DAC"/>
</linearGradient>
<linearGradient id="paint117_linear" x1="159.496" y1="51.0643" x2="83.1252" y2="70.8945" gradientUnits="userSpaceOnUse">
<stop stop-color="#6E82A2"/>
<stop offset="1" stop-color="#818DAC"/>
</linearGradient>
<linearGradient id="paint118_linear" x1="159.237" y1="50.0663" x2="82.8657" y2="69.8966" gradientUnits="userSpaceOnUse">
<stop stop-color="#6E82A2"/>
<stop offset="1" stop-color="#818DAC"/>
</linearGradient>
<linearGradient id="paint119_linear" x1="158.813" y1="48.4345" x2="82.442" y2="68.265" gradientUnits="userSpaceOnUse">
<stop stop-color="#6E82A2"/>
<stop offset="1" stop-color="#818DAC"/>
</linearGradient>
<linearGradient id="paint120_linear" x1="158.071" y1="45.5771" x2="81.7006" y2="65.4072" gradientUnits="userSpaceOnUse">
<stop stop-color="#6E82A2"/>
<stop offset="1" stop-color="#818DAC"/>
</linearGradient>
<linearGradient id="paint121_linear" x1="158.335" y1="67.4433" x2="158.908" y2="67.4433" gradientUnits="userSpaceOnUse">
<stop stop-color="#8498B6"/>
<stop offset="1" stop-color="#98A8C8"/>
</linearGradient>
<linearGradient id="paint122_linear" x1="164.03" y1="94.551" x2="123.46" y2="72.1396" gradientUnits="userSpaceOnUse">
<stop stop-color="#282747" stop-opacity="0.7"/>
<stop offset="0.1891" stop-color="#212137" stop-opacity="0.5676"/>
<stop offset="0.4413" stop-color="#161723" stop-opacity="0.3911"/>
<stop offset="0.6695" stop-color="#0B0C13" stop-opacity="0.2314"/>
<stop offset="0.8634" stop-color="#030406" stop-opacity="0.0956055"/>
<stop offset="1" stop-color="#020203" stop-opacity="0"/>
</linearGradient>
<linearGradient id="paint123_linear" x1="88.5" y1="26" x2="124" y2="34" gradientUnits="userSpaceOnUse">
<stop offset="0.494792" stop-opacity="0.5"/>
<stop offset="1" stop-opacity="0"/>
</linearGradient>
</defs>
</svg>
